<svg width="62" height="63" viewBox="0 0 62 63" fill="none" xmlns="http://www.w3.org/2000/svg">
<path fill-rule="evenodd" clip-rule="evenodd" d="M35.3937 17.189L46.0359 12.4424C48.2251 11.4527 50.5249 13.5965 49.7246 15.8215L45.8118 26.7509L53.6435 35.3441C55.2876 37.1478 53.8738 40.0108 51.46 39.8629L39.8914 39.5444L34.0872 49.6056C32.89 51.6867 29.7506 51.3027 29.0884 49.0016L25.8047 37.8999L27.2197 42.6842L7.70996 62.0749L7.53511 62.229C6.2665 63.3213 4.32777 63.2409 3.14111 62.0646H3.13336L0.943493 59.8882C-0.314169 58.6381 -0.314662 56.5798 0.943 55.3297L19.7489 36.639L14.3912 35.5229C12.0349 35.0338 11.4308 31.9779 13.4058 30.6377L23.0268 24.0837L21.7721 12.5507C21.5134 10.1691 24.2934 8.64941 26.1797 10.1444L35.3937 17.189ZM25.8047 37.8999L22.0449 37.1174L18.8469 40.2959L19.2993 47.7953L26.5884 40.5505L25.8047 37.8999ZM9.91004 49.1783L2.33195 56.7102C1.8346 57.2051 1.8346 58.0123 2.33245 58.5077L4.52231 60.6841C5.02065 61.179 5.82402 61.1877 6.32101 60.6945L10.3224 56.7174L9.91004 49.1783ZM29.6464 33.9327L22.2722 32.3966C21.7489 32.2904 21.6213 31.6125 22.0528 31.3186L28.2694 27.0839L27.4592 19.6355C27.4012 19.0963 28.0345 18.7711 28.4457 19.1113L34.3993 23.6652L41.2757 20.598C41.7627 20.3804 42.2642 20.8584 42.0894 21.3449L39.5646 28.4036L44.6241 33.9555C44.9892 34.3565 44.6718 34.9863 44.1391 34.9544L36.6275 34.7482L32.8786 41.2465C32.6121 41.7099 31.9176 41.6166 31.7724 41.1135L29.6464 33.9327ZM47.6603 54.8359L48.8978 54.1317C49.3853 53.8549 49.5886 53.2115 49.2769 52.7476L44.5613 45.741C43.7969 44.6033 41.9784 45.6354 42.5785 46.869L46.2677 54.4596C46.5119 54.9617 47.1727 55.1132 47.6603 54.8359ZM8.10617 16.1771L7.53462 17.4762C7.30957 17.9876 7.53253 18.6241 8.06052 18.8119L16.0493 21.6429C17.3444 22.1042 18.1868 20.198 16.9648 19.5624L9.44997 15.6544C8.95261 15.3961 8.33123 15.6663 8.10617 16.1771ZM35.6389 0H34.2127C33.651 0 33.153 0.458245 33.1919 1.01445L33.7832 9.42367C33.8776 10.7876 35.9725 10.7903 36.0678 9.42367L36.6591 1.01445C36.698 0.457755 36.2001 0 35.6389 0ZM62.9699 23.3554L62.6292 21.9785C62.4954 21.4367 61.9285 21.0655 61.3947 21.2362L53.3204 23.8158C52.0097 24.2328 52.5065 26.255 53.866 26.0204L62.2231 24.5822C62.7759 24.4869 63.1043 23.8972 62.9699 23.3554ZM27.1574 36.4442L14.7398 33.858C13.8586 33.6786 13.6438 32.5373 14.3705 32.0429L24.8385 24.9121L23.4744 12.3708C23.3764 11.4625 24.4427 10.9146 25.1351 11.4883L35.1602 19.1556L46.7387 13.9914C47.5592 13.6249 48.4035 14.4291 48.1095 15.2488L43.857 27.1344L52.377 36.4828C52.9916 37.1576 52.4573 38.2185 51.5606 38.1644L38.9122 37.8175L32.5996 48.7598C32.1504 49.5402 30.9815 49.3825 30.7366 48.5355L27.1574 36.4442Z" fill="white"/>
</svg>
